<?xml version="1.0" encoding="UTF-8" standalone="no"?>
<!DOCTYPE svg PUBLIC "-//W3C//DTD SVG 1.1//EN" "http://www.w3.org/Graphics/SVG/1.1/DTD/svg11.dtd">
<svg version="1.1" xmlns="http://www.w3.org/2000/svg" xmlns:xlink="http://www.w3.org/1999/xlink" preserveAspectRatio="xMidYMid meet" viewBox="0 0 640 640" width="640" height="640"><defs><path d="M224.94 0.07L227.89 0.17L230.83 0.29L233.76 0.46L236.68 0.66L239.58 0.9L242.48 1.17L245.36 1.49L248.23 1.84L251.09 2.22L253.93 2.64L256.77 3.1L259.59 3.6L262.4 4.13L265.2 4.7L267.99 5.3L270.77 5.95L273.53 6.63L276.29 7.34L279.03 8.09L281.76 8.88L284.48 9.71L287.19 10.57L289.88 11.47L292.57 12.41L295.24 13.38L297.9 14.39L300.55 15.44L303.19 16.52L305.82 17.64L308.43 18.8L311.03 19.99L313.63 21.22L316.21 22.49L318.77 23.79L321.33 25.13L323.88 26.51L326.41 27.92L328.93 29.37L331.44 30.85L333.92 32.36L336.37 33.9L338.79 35.46L341.19 37.04L343.56 38.65L345.91 40.29L348.23 41.96L350.52 43.65L352.79 45.37L355.03 47.11L357.25 48.88L359.43 50.68L361.6 52.5L363.73 54.35L365.84 56.22L367.93 58.12L369.99 60.05L372.02 62L374.02 63.98L376 65.99L377.96 68.02L379.88 70.08L381.78 72.16L383.66 74.27L385.51 76.41L387.33 78.57L389.13 80.76L390.89 82.98L392.64 85.22L394.36 87.48L396.05 89.78L397.71 92.1L399.35 94.44L400.96 96.82L402.55 99.21L404.11 101.64L405.65 104.09L407.15 106.57L408.64 109.07L410.09 111.59L411.5 114.13L412.88 116.67L414.21 119.23L415.52 121.8L416.78 124.38L418.01 126.97L419.21 129.57L420.36 132.19L421.48 134.81L422.56 137.45L423.61 140.1L424.62 142.76L425.59 145.44L426.53 148.12L427.43 150.82L428.29 153.52L429.12 156.24L429.91 158.97L430.66 161.72L431.37 164.47L432.05 167.24L432.7 170.01L433.3 172.8L433.87 175.6L434.4 178.42L434.9 181.24L435.36 184.07L435.78 186.92L436.16 189.78L436.51 192.65L436.82 195.53L437.1 198.42L437.34 201.33L437.54 204.25L437.71 207.17L437.83 210.11L437.93 213.06L437.98 216.03L438 219L437.98 221.97L437.93 224.94L437.83 227.89L437.71 230.83L437.54 233.75L437.34 236.67L437.1 239.58L436.82 242.47L436.51 245.35L436.16 248.22L435.78 251.08L435.36 253.92L434.9 256.76L434.4 259.58L433.87 262.39L433.3 265.19L432.69 267.98L432.05 270.76L431.37 273.53L430.66 276.28L429.91 279.02L429.12 281.75L428.29 284.47L427.43 287.18L426.53 289.88L425.59 292.56L424.62 295.23L423.61 297.9L422.56 300.55L421.48 303.18L420.36 305.81L419.2 308.43L418.01 311.03L416.78 313.62L415.51 316.2L414.21 318.77L412.87 321.33L411.5 323.87L410.08 326.41L408.63 328.93L407.15 331.43L405.64 333.91L404.11 336.36L402.55 338.78L400.96 341.18L399.35 343.56L397.71 345.9L396.04 348.22L394.35 350.52L392.64 352.78L390.89 355.02L389.12 357.24L387.33 359.43L385.5 361.59L383.66 363.73L381.78 365.84L379.88 367.92L377.95 369.98L376 372.01L374.02 374.02L372.02 376L369.98 377.95L367.93 379.88L365.84 381.78L363.73 383.65L361.6 385.5L359.43 387.33L357.24 389.12L355.03 390.89L352.79 392.64L350.52 394.35L348.23 396.04L345.91 397.71L343.56 399.35L341.19 400.96L338.79 402.55L336.37 404.11L333.91 405.64L331.44 407.15L328.93 408.63L326.41 410.08L323.88 411.49L321.33 412.87L318.77 414.21L316.21 415.51L313.63 416.78L311.03 418.01L308.43 419.2L305.82 420.36L303.19 421.48L300.55 422.56L297.9 423.61L295.24 424.62L292.57 425.59L289.88 426.53L287.19 427.43L284.48 428.29L281.76 429.12L279.03 429.91L276.28 430.66L273.53 431.37L270.76 432.05L267.99 432.7L265.2 433.3L262.4 433.87L259.59 434.4L256.76 434.9L253.93 435.36L251.08 435.78L248.22 436.17L245.35 436.51L242.47 436.83L239.58 437.1L236.67 437.34L233.76 437.54L230.83 437.71L227.89 437.84L224.94 437.93L221.98 437.98L219 438L216.03 437.98L213.07 437.93L210.12 437.84L207.18 437.71L204.25 437.54L201.33 437.34L198.43 437.1L195.53 436.83L192.65 436.51L189.78 436.17L186.92 435.78L184.08 435.36L181.24 434.9L178.42 434.4L175.61 433.87L172.81 433.3L170.02 432.7L167.24 432.05L164.48 431.37L161.72 430.66L158.98 429.91L156.25 429.12L153.53 428.29L150.82 427.43L148.13 426.53L145.44 425.59L142.77 424.62L140.11 423.61L137.46 422.56L134.82 421.48L132.19 420.36L129.58 419.2L126.97 418.01L124.38 416.78L121.8 415.51L119.23 414.21L116.68 412.87L114.13 411.49L111.6 410.08L109.07 408.63L106.57 407.15L104.09 405.64L101.64 404.11L99.22 402.54L96.82 400.96L94.45 399.35L92.1 397.71L89.78 396.04L87.49 394.35L85.22 392.63L82.98 390.89L80.76 389.12L78.57 387.32L76.41 385.5L74.27 383.65L72.16 381.78L70.08 379.88L68.02 377.95L65.99 376L63.98 374.02L62 372.01L60.05 369.98L58.12 367.92L56.22 365.84L54.35 363.73L52.5 361.59L50.68 359.43L48.88 357.24L47.11 355.02L45.37 352.78L43.65 350.51L41.96 348.22L40.29 345.9L38.65 343.56L37.04 341.18L35.46 338.78L33.9 336.36L32.36 333.91L30.85 331.43L29.37 328.93L27.92 326.41L26.51 323.87L25.13 321.33L23.79 318.77L22.49 316.2L21.22 313.62L19.99 311.03L18.8 308.42L17.64 305.81L16.52 303.18L15.44 300.54L14.39 297.89L13.38 295.23L12.41 292.56L11.47 289.88L10.57 287.18L9.71 284.47L8.89 281.75L8.1 279.02L7.34 276.28L6.63 273.53L5.95 270.76L5.31 267.98L4.7 265.19L4.13 262.39L3.6 259.58L3.1 256.76L2.64 253.92L2.22 251.08L1.84 248.22L1.49 245.35L1.18 242.47L0.9 239.58L0.66 236.67L0.46 233.75L0.29 230.83L0.17 227.89L0.07 224.94L0.02 221.97L0 219L0.02 216.03L0.07 213.06L0.17 210.11L0.29 207.17L0.46 204.25L0.66 201.33L0.9 198.43L1.17 195.53L1.49 192.65L1.84 189.78L2.22 186.92L2.64 184.08L3.1 181.24L3.6 178.42L4.13 175.61L4.7 172.81L5.3 170.02L5.95 167.24L6.63 164.47L7.34 161.72L8.1 158.98L8.88 156.25L9.71 153.53L10.57 150.82L11.47 148.12L12.41 145.44L13.38 142.77L14.39 140.1L15.44 137.45L16.52 134.82L17.64 132.19L18.8 129.57L19.99 126.97L21.22 124.38L22.49 121.8L23.79 119.23L25.13 116.67L26.51 114.13L27.92 111.59L29.37 109.07L30.86 106.57L32.36 104.09L33.9 101.64L35.46 99.21L37.05 96.82L38.66 94.44L40.3 92.1L41.96 89.78L43.65 87.48L45.37 85.22L47.12 82.97L48.88 80.76L50.68 78.57L52.5 76.41L54.35 74.27L56.23 72.16L58.13 70.08L60.05 68.02L62.01 65.99L63.99 63.98L65.99 62L68.02 60.05L70.08 58.12L72.17 56.22L74.28 54.35L76.41 52.5L78.58 50.68L80.77 48.88L82.98 47.11L85.22 45.37L87.49 43.65L89.78 41.96L92.1 40.29L94.45 38.65L96.82 37.04L99.22 35.45L101.65 33.89L104.1 32.36L106.57 30.85L109.08 29.37L111.6 27.92L114.13 26.51L116.68 25.13L119.24 23.79L121.8 22.49L124.38 21.22L126.98 19.99L129.58 18.8L132.19 17.64L134.82 16.52L137.46 15.44L140.11 14.39L142.77 13.38L145.44 12.41L148.13 11.47L150.82 10.57L153.53 9.71L156.25 8.88L158.98 8.09L161.72 7.34L164.48 6.63L167.24 5.95L170.02 5.3L172.81 4.7L175.61 4.13L178.42 3.6L181.25 3.1L184.08 2.64L186.93 2.22L189.79 1.84L192.66 1.49L195.54 1.17L198.43 0.9L201.34 0.66L204.25 0.46L207.18 0.29L210.12 0.17L213.07 0.07L216.03 0.02L219.01 0L221.98 0.02L224.94 0.07ZM318.64 144.3L318.28 144.32L317.92 144.34L317.56 144.37L317.2 144.41L316.85 144.45L316.49 144.5L316.14 144.56L315.8 144.63L315.45 144.7L315.11 144.77L314.77 144.86L314.43 144.95L314.1 145.05L313.77 145.15L313.44 145.27L313.11 145.38L312.79 145.51L312.46 145.64L312.14 145.78L311.83 145.93L311.51 146.08L311.2 146.24L310.89 146.4L310.58 146.58L310.28 146.76L309.98 146.94L309.68 147.13L309.38 147.33L309.09 147.54L308.79 147.75L308.5 147.97L308.22 148.2L307.93 148.44L307.65 148.68L307.37 148.92L307.09 149.18L306.82 149.44L306.55 149.71L219 237.25L131.46 149.71L131.19 149.44L130.91 149.18L130.64 148.92L130.36 148.68L130.08 148.44L129.79 148.2L129.5 147.98L129.21 147.75L128.92 147.54L128.63 147.33L128.33 147.14L128.03 146.94L127.73 146.76L127.42 146.58L127.12 146.4L126.81 146.24L126.5 146.08L126.18 145.93L125.86 145.78L125.54 145.64L125.22 145.51L124.9 145.38L124.57 145.27L124.24 145.15L123.91 145.05L123.57 144.95L123.24 144.86L122.9 144.77L122.56 144.7L122.21 144.63L121.86 144.56L121.52 144.5L121.16 144.45L120.81 144.41L120.45 144.37L120.09 144.34L119.73 144.32L119.37 144.3L119 144.29L118.63 144.29L118.26 144.29L117.89 144.3L117.53 144.32L117.17 144.34L116.81 144.37L116.45 144.41L116.1 144.45L115.74 144.5L115.39 144.56L115.05 144.63L114.7 144.7L114.36 144.77L114.02 144.86L113.68 144.95L113.35 145.05L113.02 145.15L112.69 145.27L112.36 145.38L112.04 145.51L111.71 145.64L111.39 145.78L111.08 145.93L110.76 146.08L110.45 146.24L110.14 146.4L109.83 146.58L109.53 146.76L109.23 146.94L108.93 147.13L108.63 147.33L108.34 147.54L108.04 147.75L107.75 147.97L107.47 148.2L107.18 148.44L106.9 148.68L106.62 148.92L106.34 149.18L106.07 149.44L105.79 149.71L76.71 178.79L76.44 179.06L76.18 179.34L75.93 179.62L75.68 179.89L75.44 180.18L75.21 180.46L74.98 180.75L74.76 181.04L74.55 181.33L74.34 181.63L74.14 181.92L73.95 182.22L73.76 182.52L73.58 182.83L73.41 183.14L73.24 183.45L73.08 183.76L72.93 184.07L72.79 184.39L72.65 184.71L72.51 185.03L72.39 185.36L72.27 185.68L72.16 186.01L72.05 186.35L71.96 186.68L71.86 187.02L71.78 187.36L71.7 187.7L71.63 188.04L71.57 188.39L71.51 188.74L71.46 189.09L71.41 189.45L71.38 189.8L71.35 190.16L71.32 190.53L71.3 190.89L71.29 191.26L71.29 191.63L71.29 192L71.3 192.36L71.32 192.73L71.35 193.09L71.38 193.45L71.41 193.81L71.46 194.16L71.51 194.51L71.57 194.86L71.63 195.21L71.7 195.55L71.78 195.89L71.86 196.23L71.96 196.57L72.05 196.91L72.16 197.24L72.27 197.57L72.39 197.89L72.51 198.22L72.65 198.54L72.79 198.86L72.93 199.18L73.08 199.49L73.24 199.8L73.41 200.11L73.58 200.42L73.76 200.72L73.95 201.03L74.14 201.33L74.34 201.62L74.55 201.92L74.76 202.21L74.98 202.5L75.21 202.79L75.44 203.07L75.68 203.35L75.93 203.63L76.18 203.91L76.44 204.18L76.71 204.46L206.17 333.92L206.44 334.19L206.72 334.45L207 334.7L207.28 334.95L207.56 335.19L207.84 335.42L208.13 335.65L208.42 335.87L208.71 336.08L209.01 336.29L209.3 336.49L209.6 336.68L209.91 336.87L210.21 337.05L210.52 337.22L210.83 337.39L211.14 337.55L211.45 337.7L211.77 337.84L212.09 337.98L212.41 338.11L212.74 338.24L213.06 338.36L213.39 338.47L213.72 338.58L214.06 338.67L214.4 338.77L214.74 338.85L215.08 338.93L215.42 339L215.77 339.06L216.12 339.12L216.47 339.17L216.82 339.22L217.18 339.25L217.54 339.28L217.9 339.31L218.27 339.33L218.63 339.34L219 339.34L219.37 339.34L219.74 339.33L220.1 339.31L220.47 339.28L220.83 339.25L221.18 339.22L221.54 339.17L221.89 339.12L222.24 339.06L222.59 339L222.93 338.93L223.27 338.85L223.61 338.77L223.95 338.67L224.28 338.58L224.62 338.47L224.95 338.36L225.27 338.24L225.6 338.11L225.92 337.98L226.24 337.84L226.56 337.7L226.87 337.54L227.18 337.39L227.49 337.22L227.8 337.05L228.11 336.87L228.41 336.68L228.71 336.49L229 336.29L229.3 336.08L229.59 335.87L229.88 335.65L230.17 335.42L230.45 335.19L230.73 334.95L231.01 334.7L231.29 334.45L231.56 334.19L231.84 333.92L361.29 204.46L361.56 204.18L361.82 203.91L362.08 203.63L362.32 203.35L362.57 203.07L362.8 202.79L363.03 202.5L363.25 202.21L363.46 201.92L363.67 201.62L363.87 201.33L364.06 201.03L364.25 200.72L364.43 200.42L364.6 200.11L364.77 199.8L364.93 199.49L365.08 199.18L365.22 198.86L365.36 198.54L365.5 198.22L365.62 197.89L365.74 197.57L365.85 197.24L365.96 196.91L366.05 196.57L366.15 196.23L366.23 195.89L366.31 195.55L366.38 195.21L366.44 194.86L366.5 194.51L366.55 194.16L366.6 193.81L366.63 193.45L366.67 193.09L366.69 192.73L366.71 192.36L366.72 192L366.72 191.63L366.72 191.26L366.71 190.89L366.69 190.53L366.67 190.16L366.64 189.8L366.6 189.45L366.55 189.09L366.5 188.74L366.45 188.39L366.38 188.04L366.31 187.7L366.23 187.36L366.15 187.02L366.06 186.68L365.96 186.35L365.85 186.01L365.74 185.68L365.62 185.36L365.5 185.03L365.37 184.71L365.23 184.39L365.08 184.07L364.93 183.76L364.77 183.45L364.6 183.14L364.43 182.83L364.25 182.52L364.06 182.22L363.87 181.92L363.67 181.63L363.46 181.33L363.25 181.04L363.03 180.75L362.8 180.46L362.57 180.18L362.33 179.89L362.08 179.62L361.83 179.34L361.57 179.06L361.3 178.79L332.21 149.71L331.94 149.44L331.66 149.18L331.39 148.92L331.11 148.68L330.83 148.44L330.54 148.2L330.25 147.98L329.96 147.75L329.67 147.54L329.38 147.33L329.08 147.14L328.78 146.94L328.48 146.76L328.17 146.58L327.87 146.4L327.56 146.24L327.25 146.08L326.93 145.93L326.61 145.78L326.3 145.64L325.97 145.51L325.65 145.38L325.32 145.27L324.99 145.15L324.66 145.05L324.33 144.95L323.99 144.86L323.65 144.77L323.31 144.7L322.96 144.63L322.61 144.56L322.27 144.5L321.91 144.45L321.56 144.41L321.2 144.37L320.84 144.34L320.48 144.32L320.12 144.3L319.75 144.29L319.38 144.29L319.01 144.29L318.64 144.3Z" id="c1ZCTcj9Rk"></path></defs><g><g><g><use xlink:href="#c1ZCTcj9Rk" opacity="1" fill="#ffffff" fill-opacity="1"></use><g><use xlink:href="#c1ZCTcj9Rk" opacity="1" fill-opacity="0" stroke="#000000" stroke-width="1" stroke-opacity="0"></use></g></g></g></g></svg>